# xmcd
#
# Track frame offsets: 
#        150
#        16563
#        28458
#        41595
#        55029
#        70290
#        81330
#        92991
#        104328
#        116664
#
# Disc length: 1715 seconds
#
# Revision: 0
# Processed by: cddbd v1.5.2PL0 Copyright (c) Steve Scherf et al.
# Submitted via: ExactAudioCopy v1.3
#
DISCID=8106b10a
DTITLE=Marty Robbins - Adios Amigo
DYEAR=1977
DGENRE=Country
TTITLE0=Adios Amigo
TTITLE1=18 Yellow Roses
TTITLE2=Falling Out Of Love
TTITLE3=I've Never Loved Anyone More
TTITLE4=Helen
TTITLE5=I Don't Know Why
TTITLE6=My Happiness
TTITLE7=My Blue Heaven
TTITLE8=Inspiration For a Song
TTITLE9=After The Storm
EXTD=
EXTT0=
EXTT1=
EXTT2=
EXTT3=
EXTT4=
EXTT5=
EXTT6=
EXTT7=
EXTT8=
EXTT9=
PLAYORDER=
